<?xml version="1.0" encoding="UTF-8" standalone="no"?>
<!-- Created with Inkscape (http://www.inkscape.org/) -->

<svg
   width="512"
   height="512"
   viewBox="0 0 512 512"
   version="1.1"
   id="svg1"
   xml:space="preserve"
   inkscape:version="1.3.2 (091e20e, 2023-11-25, custom)"
   sodipodi:docname="icon.svg"
   inkscape:export-filename="icon.png"
   inkscape:export-xdpi="96"
   inkscape:export-ydpi="96"
   xmlns:inkscape="http://www.inkscape.org/namespaces/inkscape"
   xmlns:sodipodi="http://sodipodi.sourceforge.net/DTD/sodipodi-0.dtd"
   xmlns="http://www.w3.org/2000/svg"
   xmlns:svg="http://www.w3.org/2000/svg"><sodipodi:namedview
     id="namedview1"
     pagecolor="#ffffff"
     bordercolor="#000000"
     borderopacity="0.25"
     inkscape:showpageshadow="2"
     inkscape:pageopacity="0.0"
     inkscape:pagecheckerboard="0"
     inkscape:deskcolor="#d1d1d1"
     inkscape:document-units="px"
     inkscape:zoom="0.97641503"
     inkscape:cx="389.69085"
     inkscape:cy="193.05315"
     inkscape:window-width="1920"
     inkscape:window-height="974"
     inkscape:window-x="-11"
     inkscape:window-y="-11"
     inkscape:window-maximized="1"
     inkscape:current-layer="svg1" /><defs
     id="defs1"><filter
       style="color-interpolation-filters:sRGB;"
       inkscape:label="Drop Shadow"
       id="filter52"
       x="-1.5457901"
       y="-0.8295863"
       width="4.0915802"
       height="2.6591726"><feFlood
         result="flood"
         in="SourceGraphic"
         flood-opacity="1.000000"
         flood-color="rgb(242,210,0)"
         id="feFlood51" /><feGaussianBlur
         result="blur"
         in="SourceGraphic"
         stdDeviation="4.9416234"
         id="feGaussianBlur51" /><feOffset
         result="offset"
         in="blur"
         dx="0.000000"
         dy="0.000000"
         id="feOffset51" /><feComposite
         result="comp1"
         operator="in"
         in="offset"
         in2="flood"
         id="feComposite51" /><feComposite
         result="fbSourceGraphic"
         operator="over"
         in="SourceGraphic"
         in2="comp1"
         id="feComposite52" /><feColorMatrix
         result="fbSourceGraphicAlpha"
         in="fbSourceGraphic"
         values="0 0 0 -1 0 0 0 0 -1 0 0 0 0 -1 0 0 0 0 1 0"
         id="feColorMatrix54" /><feFlood
         id="feFlood54"
         result="flood"
         in="fbSourceGraphic"
         flood-opacity="1.000000"
         flood-color="rgb(16,60,72)" /><feGaussianBlur
         id="feGaussianBlur54"
         result="blur"
         in="fbSourceGraphic"
         stdDeviation="3.000000" /><feOffset
         id="feOffset54"
         result="offset"
         in="blur"
         dx="0.000000"
         dy="0.000000" /><feComposite
         id="feComposite54"
         result="comp1"
         operator="in"
         in="flood"
         in2="offset" /><feComposite
         id="feComposite55"
         result="fbSourceGraphic"
         operator="over"
         in="fbSourceGraphic"
         in2="comp1" /><feColorMatrix
         result="fbSourceGraphicAlpha"
         in="fbSourceGraphic"
         values="0 0 0 -1 0 0 0 0 -1 0 0 0 0 -1 0 0 0 0 1 0"
         id="feColorMatrix55" /><feFlood
         id="feFlood55"
         result="flood"
         in="fbSourceGraphic"
         flood-opacity="1.000000"
         flood-color="rgb(16,60,72)" /><feGaussianBlur
         id="feGaussianBlur55"
         result="blur"
         in="fbSourceGraphic"
         stdDeviation="3.000000" /><feOffset
         id="feOffset55"
         result="offset"
         in="blur"
         dx="0.000000"
         dy="0.000000" /><feComposite
         id="feComposite56"
         result="comp1"
         operator="in"
         in="flood"
         in2="offset" /><feComposite
         id="feComposite57"
         result="fbSourceGraphic"
         operator="over"
         in="fbSourceGraphic"
         in2="comp1" /><feColorMatrix
         result="fbSourceGraphicAlpha"
         in="fbSourceGraphic"
         values="0 0 0 -1 0 0 0 0 -1 0 0 0 0 -1 0 0 0 0 1 0"
         id="feColorMatrix25" /><feFlood
         id="feFlood25"
         result="flood"
         in="fbSourceGraphic"
         flood-opacity="1.000000"
         flood-color="rgb(90,52,102)" /><feGaussianBlur
         id="feGaussianBlur25"
         result="blur"
         in="fbSourceGraphic"
         stdDeviation="20.000000" /><feOffset
         id="feOffset25"
         result="offset"
         in="blur"
         dx="0.000000"
         dy="0.000000" /><feComposite
         id="feComposite25"
         result="comp1"
         operator="in"
         in="offset"
         in2="flood" /><feComposite
         id="feComposite26"
         result="comp2"
         operator="over"
         in="fbSourceGraphic"
         in2="comp1" /></filter><clipPath
       clipPathUnits="userSpaceOnUse"
       id="clipPath57"><rect
         style="fill:#72898f;stroke:#000000;stroke-width:0"
         id="rect58"
         width="98.4375"
         height="98.4375"
         x="-2.2"
         y="-2.2" /></clipPath><clipPath
       clipPathUnits="userSpaceOnUse"
       id="clipPath15"><circle
         style="fill:#103c48;stroke:#000000;stroke-width:0"
         id="circle16"
         cx="256"
         cy="256"
         r="256"
         inkscape:label="bg" /></clipPath><clipPath
       clipPathUnits="userSpaceOnUse"
       id="clipPath16"><circle
         style="fill:#103c48;stroke:#000000;stroke-width:0"
         id="circle17"
         cx="47.018749"
         cy="47.018749"
         r="49.21875"
         inkscape:label="bg" /></clipPath><clipPath
       clipPathUnits="userSpaceOnUse"
       id="clipPath17"><circle
         style="fill:#103c48;stroke:#000000;stroke-width:0"
         id="circle18"
         cx="256"
         cy="256"
         r="256"
         inkscape:label="bg" /></clipPath><clipPath
       clipPathUnits="userSpaceOnUse"
       id="clipPath18"><circle
         style="fill:#103c48;stroke:#000000;stroke-width:0"
         id="circle19"
         cx="49.999996"
         cy="49.999996"
         r="58.163929"
         inkscape:label="bg" /></clipPath><clipPath
       clipPathUnits="userSpaceOnUse"
       id="clipPath19"><circle
         style="fill:#103c48;stroke:#000000;stroke-width:0"
         id="circle20"
         cx="256"
         cy="256"
         r="256"
         inkscape:label="bg" /></clipPath></defs><circle
     style="display:inline;opacity:1;fill:#72898f;stroke:#000000;stroke-width:0"
     id="path13"
     cx="256"
     cy="255.99998"
     inkscape:label="moon"
     r="200"
     clip-path="url(#clipPath17)"
     transform="matrix(1.28,0,0,1.28,-71.68,-71.67998)" /><g
     id="g77"
     transform="matrix(6.6576253,0,0,6.6576253,-57.033224,-57.033204)"
     style="display:inline;opacity:1"
     inkscape:label="craters"
     clip-path="url(#clipPath16)"><path
       fill="#000000"
       d="m 68.795142,22.254864 c 0.377155,-0.660027 0.282863,-1.508619 -0.09424,-2.262927 -0.377157,-0.848605 -1.131465,-1.602911 -2.074357,-2.168645 -1.980062,-1.131466 -4.148707,-0.942893 -4.903017,0.28286 -0.377156,0.660024 -0.377156,1.508627 0.09424,2.262932 0.188572,0.377161 0.471442,0.754315 0.848594,1.131467 0.377158,0.377161 0.754314,0.660019 1.225758,0.942894 0.942886,0.565732 1.980066,0.848591 2.922951,0.754305 0.848601,0.09424 1.602909,-0.282859 1.980068,-0.942886 z"
       id="path2"
       style="display:inline;fill:#fa5750;stroke-width:0.942894" /><path
       fill="#000000"
       d="m 37.114101,27.912188 c 0.471447,0.565733 1.225755,0.942894 2.07436,0.942894 v 0 c 0,0 0,0 0,0 -0.09424,1.791485 0.66002,3.394398 1.980058,4.148704 0.377161,0.282869 0.848606,0.377161 1.320047,0.471447 1.320047,0.188572 2.828663,-0.282872 4.054419,-1.414336 0.942886,-0.188577 1.885779,-0.660024 2.45151,-1.41433 0.660021,-0.754305 1.037176,-1.697199 1.037176,-2.734379 0,-1.225753 -0.565733,-2.357219 -1.414335,-3.111525 -0.188572,-0.37716 -0.377155,-0.75431 -0.660019,-1.131466 -0.282866,-0.28287 -0.565733,-0.565733 -0.94289,-0.848602 -0.471442,-0.282864 -0.942884,-0.37715 -1.508617,-0.471437 -0.471445,-0.09424 -1.037178,0 -1.602911,0.09424 -1.03718,0.282859 -2.074357,0.942883 -2.922952,1.885772 -0.282869,-0.282861 -0.565733,-0.471447 -0.848602,-0.565733 -0.282864,-0.09424 -0.660025,-0.188573 -1.037172,-0.188573 -1.131465,0 -1.980072,0.66002 -2.451514,1.602907 -0.09424,0.282866 -0.188577,0.660025 -0.188577,1.037171 0,0.377161 0.09424,0.754319 0.188577,1.03718 0.188584,0.282872 0.28287,0.471447 0.471442,0.660019 z"
       id="path3"
       style="display:inline;fill:#325b66;stroke-width:0.942894" /><path
       fill="#000000"
       d="m 58.989106,26.120702 c -0.377158,0 -0.75431,0.09424 -1.131466,0.18858 -0.754309,0.188581 -1.414332,0.565732 -1.980063,1.037172 -0.28287,0.282875 -0.471443,0.565734 -0.754314,0.848608 -2.922955,0.188573 -5.280173,2.640078 -5.280173,5.657324 0,2.357223 1.414336,4.337284 3.488685,5.280174 0.09424,0 0.188581,0 0.188581,0.09424 0.188578,-0.660021 0.754312,-1.225754 1.508618,-1.225754 0.754313,0 1.414334,0.565733 1.508624,1.414327 2.357222,-0.471447 4.242994,-2.262933 4.525862,-4.620152 1.414331,-0.754305 2.35722,-2.262932 2.35722,-3.960132 0,-1.225752 -0.471443,-2.451504 -1.320045,-3.20581 -0.75431,-0.942894 -1.885777,-1.508627 -3.111529,-1.508627 z"
       id="path4"
       style="display:inline;fill:#325b66;stroke-width:0.942894" /><path
       fill="#000000"
       d="m 74.452469,29.137943 c -0.471445,-0.660022 -1.037176,-1.225755 -1.885777,-1.602903 -0.565731,-0.188586 -1.131465,-0.377158 -1.791488,-0.377158 -0.660024,0 -1.225755,0.09424 -1.791487,0.377158 -1.131466,0.471438 -1.980063,1.320042 -2.451508,2.451508 -0.188576,0.565733 -0.377156,1.131466 -0.377156,1.791485 0,0.66002 0.09424,1.225753 0.377156,1.791486 0.471445,1.131466 1.320042,1.980063 2.451508,2.451505 0.565732,0.188585 1.131463,0.377161 1.791487,0.377161 1.225757,0 2.451511,-0.471447 3.20582,-1.320042 0.848599,-0.848605 1.320041,-1.980071 1.320041,-3.205823 0.09424,-1.131467 -0.282863,-1.980058 -0.848596,-2.734377 z"
       id="path5"
       style="display:inline;fill:#325b66;stroke-width:0.942894" /><path
       fill="#000000"
       d="m 67.852251,41.866931 c -0.282864,0 -0.565734,0.09424 -0.754309,0.188583 -0.660019,0.282861 -1.225752,1.037175 -1.225752,1.791488 0,0.754305 0.471443,1.508614 1.225752,1.791485 0.188575,0.09424 0.471445,0.188574 0.754309,0.188574 1.037177,0 1.980067,-0.848595 1.980067,-1.980059 0,-1.131467 -0.848601,-1.980071 -1.980067,-1.980071 z"
       id="path6"
       style="display:inline;fill:#75b938;stroke-width:0.942894" /><circle
       fill="#000000"
       cx="27.685226"
       cy="21.783415"
       r="1.9800647"
       id="circle6"
       style="display:inline;fill:#dbb32d;stroke-width:0.942894" /><path
       fill="#000000"
       d="m 73.415293,23.19775 c 0.377154,0 0.660019,-0.09424 0.942886,-0.282859 -0.8486,-0.942893 -1.697197,-1.791492 -2.640085,-2.545807 v 0 c -0.09424,0.282874 -0.188578,0.565734 -0.188578,0.848607 0,0.565733 0.188578,1.037173 0.565733,1.414326 0.282864,0.37716 0.754311,0.565733 1.320044,0.565733 z"
       id="path7"
       style="display:inline;fill:#4695f7;stroke-width:0.942894" /><circle
       fill="#000000"
       cx="56.726181"
       cy="71.473595"
       r="0.84859943"
       id="circle7"
       style="display:inline;fill:#f275be;stroke-width:0.942894" /><path
       fill="#000000"
       d="m 40.602786,37.623937 c -0.471441,0.377159 -0.754305,0.8486 -0.754305,1.320039 0,0.471447 0.282864,0.942894 0.754305,1.320049 0.471447,0.37715 1.03718,0.565733 1.697199,0.565733 0.660023,0 1.320048,-0.188583 1.6972,-0.565733 0.471447,-0.377155 0.754311,-0.848602 0.754311,-1.320049 0,-0.471439 -0.282864,-0.94288 -0.754311,-1.320039 -0.471446,-0.377158 -1.037177,-0.565733 -1.6972,-0.565733 -0.660019,0.09424 -1.225752,0.282869 -1.697199,0.565733 z"
       id="path8"
       style="display:inline;fill:#41c7b9;stroke-width:0.942894" /><path
       fill="#000000"
       d="m 45.788671,59.687514 v 0 c -2.922952,0 -5.374457,2.357219 -5.374457,5.374462 0,2.922953 2.357218,4.431574 5.374457,4.431574 v 0 c 1.88578,0 3.488685,-0.565733 4.431578,-1.697199 0.565734,-0.66002 0.942887,-1.602909 0.942887,-2.734375 0,-1.131466 -0.377153,-2.16864 -0.942887,-3.017243 -0.942893,-1.414327 -2.545798,-2.357219 -4.431578,-2.357219 z"
       id="path9"
       style="display:inline;fill:#325b66;stroke-width:0.942894" /><path
       fill="#000000"
       d="m 34.851169,63.459067 c 0.565733,0.660024 1.41434,1.131467 2.357221,1.131467 0.377158,0 0.754318,-0.09424 1.131466,-0.188579 1.037178,-0.471445 1.791489,-1.508619 1.791489,-2.734375 0,-0.848599 -0.377151,-1.602907 -0.848598,-2.074352 -0.282866,-0.282867 -0.565733,-0.471447 -0.942891,-0.660021 -0.377148,-0.188579 -0.754308,-0.188579 -1.131466,-0.188579 -1.225755,0 -2.262927,0.754312 -2.734368,1.791488 -0.188587,-0.471443 -0.471445,-0.848602 -0.754317,-1.320046 -0.282861,-0.377152 -0.660022,-0.754308 -0.942881,-1.037175 0,0 0,0 0,0 3.771544,-0.660022 6.60021,-4.054418 6.60021,-8.014546 0,-4.525862 -3.677258,-8.108835 -8.108837,-8.108835 -0.471447,0 -0.942884,0 -1.414324,0.09424 -0.471447,0.09424 -0.848608,0.188573 -1.320051,0.377153 0.848604,-0.8486 1.508623,-1.980066 1.791491,-3.300105 0.09424,-0.471447 0.09424,-0.848607 0.09424,-1.320045 0,-0.282868 0,-0.565732 -0.09424,-0.942887 0.565731,-0.565733 0.942884,-1.131467 1.320045,-1.885774 0.282859,-0.75432 0.471443,-1.508625 0.471443,-2.357222 0,-3.205821 -2.640089,-5.845907 -5.845906,-5.845907 -0.377154,0 -0.754315,0 -1.131465,0.09424 -0.754317,0.188574 -1.414336,0.377147 -1.980069,0.848593 -0.565733,0.377161 -1.131466,0.848604 -1.602913,1.414335 -0.282859,0.377151 -0.565733,0.848598 -0.754306,1.320045 -0.188573,0.471445 -0.282861,0.942883 -0.377158,1.508616 v 0 c 1.225759,0.188583 2.168644,1.131464 2.168644,2.451514 0,1.414327 -1.131466,2.451507 -2.451505,2.451507 -1.03718,0 -1.980065,-0.660019 -2.35722,-1.602913 -0.282873,0.75431 -0.565733,1.602913 -0.565733,2.451507 0,1.320049 0.377157,2.545805 1.03718,3.488686 -0.565733,0.565733 -1.225754,0.565733 -1.791485,0.188583 -0.377161,-0.282877 -0.754321,-0.660027 -1.131467,-1.037182 -0.188587,-0.188577 -0.282873,-0.471447 -0.471447,-0.660019 -0.282873,-0.471447 -0.565733,-0.848608 -0.660019,-1.225755 -0.377161,-0.754317 -0.471447,-1.697197 -0.660023,-2.168644 -0.94289,3.017238 -1.602909,6.223061 -1.697196,9.523165 0,0.471444 0,0.94289 0,1.508623 0,0.471447 0,0.848597 0,1.320039 1.508612,-0.471442 3.205812,0.848605 3.865831,2.828666 0.660022,2.074358 0,4.054418 -1.508612,4.525865 -0.377161,0.09424 -0.848607,0.09424 -1.225752,0 0,0.188574 0.09424,0.282864 0.09424,0.471444 0.848592,3.017241 2.074345,5.940193 3.582971,8.58028 0.09424,-0.188581 0.09424,-0.471442 0.282859,-0.565733 0.565733,-0.377154 1.41434,-0.188579 1.885787,0.565733 0.471439,0.660022 0.471439,1.602907 0,1.980064 0,0 0,0 0,0 0,0 0,0 0,0 0.28286,0.188576 0.565733,0.377156 0.848593,0.565734 0.942893,0.471445 1.885772,0.848596 2.828665,0.942888 0.471447,0.09424 0.942893,0.09424 1.320039,0 -0.47144,0.282864 -0.754305,0.848597 -0.754305,1.41433 0,0.942889 0.754305,1.6972 1.697199,1.6972 0.942887,0 1.697199,-0.754311 1.697199,-1.6972 0,-0.754309 -0.471447,-1.320042 -1.131466,-1.60291 0.377154,-0.09424 0.660019,-0.09424 1.037179,-0.282863 0.377146,0.188574 0.754307,0.282863 1.131465,0.377151 0.377147,0.09424 0.848594,0.09424 1.225755,0.09424 3.20581,0.09424 5.751617,-2.168643 6.128762,-5.185885 z M 24.762274,60.064673 c -0.848603,0 -1.602913,-0.660024 -1.602913,-1.602911 0,-0.8486 0.660019,-1.602913 1.602913,-1.602913 0.848592,0 1.602913,0.660024 1.602913,1.602913 -0.09424,0.942887 -0.754321,1.602911 -1.602913,1.602911 z m 5.091599,-5.468754 c -1.320051,0 -2.357222,-1.037174 -2.357222,-2.357222 0,-0.188573 0.09424,-0.377151 0.09424,-0.565733 -0.377161,0.282872 -0.754314,0.565733 -1.225754,0.660024 -1.791487,0.565734 -3.771558,-0.377152 -4.243005,-1.980063 -0.282859,-0.848598 -0.09424,-1.602913 0.282874,-2.357219 -0.282874,0 -0.565733,0 -0.848607,0 -0.565729,-1.320042 -1.508608,-2.451507 -2.828655,-3.205821 l 2.074351,-1.320044 v 0 c 0.471447,0.188578 0.942893,0.377161 1.414334,0.565733 0.471438,0.09424 1.037171,0.188578 1.602904,0.188578 0.660022,0 1.225755,-0.09424 1.885781,-0.282864 -0.848601,0.754306 -1.414334,1.697199 -1.885781,2.734376 v 0 c 0.188586,-0.09424 0.471447,-0.28287 0.660022,-0.377157 1.791492,-0.565734 3.771557,0.377157 4.243004,1.980063 0.188572,0.660024 0.09424,1.320047 -0.188584,1.980069 0.377156,-0.18858 0.754317,-0.37716 1.225757,-0.37716 1.320046,0 2.357222,1.037179 2.357222,2.357218 0.09424,1.320048 -0.94289,2.357222 -2.262929,2.357222 z"
       id="path10"
       style="display:inline;fill:#325b66;stroke-width:0.942894" /><path
       fill="#000000"
       d="m 39.377034,73.265103 c 0,-1.225755 -0.754306,-2.168641 -1.6972,-2.640087 -0.37715,-0.188576 -0.754305,-0.188576 -1.131466,-0.188576 -1.602905,0 -3.111524,1.320043 -2.828663,2.828663 0.188586,1.131465 1.697197,1.320044 2.828663,2.35722 0.188585,0.09424 0.282875,0.188578 0.471447,0.282864 0.188575,0 0.282869,0.09424 0.471447,0 0.188572,0 0.282861,-0.09424 0.471446,-0.188576 0.188573,-0.09424 0.282859,-0.188576 0.47144,-0.282868 0.471439,-0.565732 0.942886,-1.41433 0.942886,-2.16864 z"
       id="path11"
       style="display:inline;opacity:1;fill:#ed8649;stroke-width:0.942894" /><path
       fill="#000000"
       d="m 42.677146,81.468228 c -0.471447,-0.565733 -1.131466,-0.94289 -1.885777,-0.94289 -0.377155,0 -0.754316,0 -1.131465,0.09424 -0.377157,0.09424 -0.660023,0.282867 -0.94289,0.565733 -0.282866,0.188578 -0.565733,0.471444 -0.754306,0.848601 1.697196,0.471443 3.582972,0.848596 5.374458,1.131464 0,-0.188577 -0.09424,-0.377155 -0.09424,-0.660021 -0.188583,-0.377152 -0.377164,-0.754308 -0.565736,-1.037174 z"
       id="path12"
       style="display:inline;fill:#af88eb;stroke-width:0.942894" /></g><path
     id="circle14"
     style="display:inline;opacity:0.3;fill:#103c48;stroke:#000000;stroke-width:0"
     inkscape:label="shadows"
     d="M 256,56 A 200,200 0 0 0 229.19141,57.916016 247.33334,247.33334 0 0 0 147.47852,241.1875 247.33334,247.33334 0 0 0 271.42188,454.89648 200,200 0 0 0 456,256 200,200 0 0 0 256,56 Z"
     clip-path="url(#clipPath15)"
     transform="matrix(1.28,0,0,1.28,-71.68,-71.67998)" /></svg>
